<svg
            className="w-4 h-4 sm:w-5 sm:h-5"
            xmlns="http://www.w3.org/2000/svg"
            viewBox="0 0 48 48"
          >
            <path
              fill="#EA4335"
              d="M24 9.5c3.1 0 5.7 1.1 7.8 3.2l5.8-5.8C33.7 3.2 29.1 1 24 1 14.8 1 7.1 6.6 4.1 14.5l6.9 5.4C12.7 13.2 17.9 9.5 24 9.5z"
            />
            <path
              fill="#4285F4"
              d="M46.5 24c0-1.6-.1-3.1-.4-4.5H24v9h12.7c-.6 3.2-2.4 5.9-5 7.7l7.7 6C43.2 38.2 46.5 31.7 46.5 24z"
            />
            <path
              fill="#FBBC05"
              d="M10.9 28.9c-1.1-3.2-1.1-6.6 0-9.8L4 14.5C1.5 19.1 1.5 24.9 4 29.5l6.9-5.4z"
            />
            <path
              fill="#34A853"
              d="M24 46c5.1 0 9.7-1.7 13.3-4.7l-7.7-6c-2.2 1.5-4.9 2.4-7.8 2.4-6.1 0-11.3-3.7-13.2-9l-6.9 5.4C7.1 41.4 14.8 46 24 46z"
            />
            <path fill="none" d="M0 0h48v48H0z" />
          </svg>